<?xml version="1.0" encoding="UTF-8"?>
<svg version="1.1" xmlns="http://www.w3.org/2000/svg" width="1024" height="1024">
<path d="M0 0 C337.92 0 675.84 0 1024 0 C1024 337.92 1024 675.84 1024 1024 C686.08 1024 348.16 1024 0 1024 C0 686.08 0 348.16 0 0 Z " fill="#121212" transform="translate(0,0)"/>
<path d="M0 0 C5.87304149 4.4650337 9.41792546 10.43953878 10.50390625 17.74609375 C10.821353 26.05261701 8.72500897 32.45142384 3.74609375 39.0625 C0.65226483 42.15632892 -2.02506462 43.8287758 -5.94140625 45.75 C-6.60140625 45.75 -7.26140625 45.75 -7.94140625 45.75 C-7.94140625 74.79 -7.94140625 103.83 -7.94140625 133.75 C-3.98140625 133.75 -0.02140625 133.75 4.05859375 133.75 C6.08185667 133.85696666 8.10467265 133.98981166 10.12109375 134.1875 C10.99894531 134.26871094 11.87679688 134.34992188 12.78125 134.43359375 C15.05859375 134.75 15.05859375 134.75 18.05859375 135.75 C18.02861549 134.89674889 18.02861549 134.89674889 17.99803162 134.02626038 C17.79796305 128.07263407 17.66279901 122.11997068 17.56420898 116.16381836 C17.5191183 113.94532451 17.457825 111.72709561 17.37963867 109.50952148 C16.74572949 91.059864 16.74572949 91.059864 19.97241211 85.3828125 C22.21941408 83.14705357 24.42304226 81.49133657 27.05859375 79.75 C28.32789078 78.41195637 29.56416123 77.04080762 30.74609375 75.625 C32.41385902 73.66039595 34.07589334 71.73194989 35.859375 69.87109375 C36.70048828 68.97583984 36.70048828 68.97583984 37.55859375 68.0625 C38.06390625 67.54300781 38.56921875 67.02351563 39.08984375 66.48828125 C40.49171639 63.9728243 39.76243332 62.48805797 39.05859375 59.75 C38.41011586 52.54232774 38.61948599 47.59093127 43.05859375 41.75 C47.47229565 37.32477408 51.12550774 35.60366118 57.37109375 35.5 C62.97084258 35.581049 66.66423104 36.31046064 70.71484375 40.4375 C75.51538005 45.87206939 76.54013229 49.2364888 76.4609375 56.56640625 C75.81150296 61.70513589 73.68432868 65.11656712 70.05859375 68.75 C66.39971178 71.41100507 63.33400076 72.70738497 58.78515625 72.859375 C53.3654109 74.15466005 50.95009009 77.39733618 47.37109375 81.5 C46.3955957 82.57507813 46.3955957 82.57507813 45.40039062 83.671875 C43.59240935 85.67705709 41.80868373 87.69411005 40.05859375 89.75 C39.34050537 90.44794678 38.62241699 91.14589355 37.88256836 91.86499023 C35.19952513 96.10880255 35.45568251 99.93569918 35.44921875 104.86328125 C35.4326825 105.83283249 35.41614624 106.80238373 35.39910889 107.80131531 C35.3506463 110.88844143 35.3292615 113.97507499 35.30859375 117.0625 C35.28043266 119.15952997 35.25050504 121.256537 35.21875 123.35351562 C35.14488753 128.48563654 35.09530204 133.61748429 35.05859375 138.75 C35.77085114 138.79639618 36.48310852 138.84279236 37.21694946 138.89059448 C44.65566852 139.40530713 51.65649949 140.84942623 58.87109375 142.6875 C60.07741455 142.99397461 61.28373535 143.30044922 62.52661133 143.61621094 C90.59649775 150.94335001 117.37547276 161.33542069 143.09667969 174.734375 C145.19271739 175.81943185 147.30077234 176.87864296 149.41015625 177.9375 C168.96100543 187.86053309 187.40096536 199.77793393 205.05859375 212.75 C206.64994141 213.91595703 206.64994141 213.91595703 208.2734375 215.10546875 C223.24424714 226.22045882 237.75089185 237.89592143 251.53295898 250.4597168 C253.0851588 251.86727469 254.64497755 253.26655094 256.21728516 254.65161133 C263.20529697 260.82644792 269.81064682 267.34901092 276.39135742 273.95239258 C278.25001483 275.81643244 280.11398989 277.67503512 281.97851562 279.53320312 C287.88690967 285.43829666 293.64983348 291.37823294 299.05859375 297.75 C300.67827192 299.52570221 302.30271093 301.29708307 303.93359375 303.0625 C308.06533117 307.58803388 311.96138253 312.2556436 315.80859375 317.0234375 C319.41548028 321.39428264 323.22798419 325.57526949 327.05859375 329.75 C325.39782076 333.89689982 322.3987843 336.81716167 319.37109375 340 C318.27658048 341.16725351 317.1828263 342.33521929 316.08984375 343.50390625 C315.56390625 344.06480957 315.03796875 344.62571289 314.49609375 345.20361328 C312.18615102 347.68852789 309.96777656 350.24901984 307.74609375 352.8125 C304.23785952 356.84047264 300.64561688 360.7922988 297.05859375 364.75 C296.27871094 365.62398437 295.49882813 366.49796875 294.6953125 367.3984375 C287.4738983 375.37943749 279.90922859 383.00769469 272.30859375 390.625 C271.76525391 391.17092804 271.22191406 391.71685608 270.66210938 392.27932739 C264.64014117 398.32388252 258.54963601 404.20537168 252.05859375 409.75 C250.28289154 411.36967817 248.51151068 412.99411718 246.74609375 414.625 C241.34367918 419.5457178 235.75690516 424.17792553 230.05859375 428.75 C228.93838859 429.66225289 227.8186167 430.57503803 226.69921875 431.48828125 C207.81868901 446.8288728 188.00095997 461.33962216 167.05859375 473.75 C167.46174805 474.14791748 167.86490234 474.54583496 168.28027344 474.95581055 C170.12573852 476.78034057 171.96718388 478.6088777 173.80859375 480.4375 C174.4428125 481.06333984 175.07703125 481.68917969 175.73046875 482.33398438 C176.65859375 483.25727539 176.65859375 483.25727539 177.60546875 484.19921875 C178.17104492 484.75955811 178.73662109 485.31989746 179.31933594 485.8972168 C181.05859375 487.75 181.05859375 487.75 182.78894043 490.32458496 C184.84559832 492.97577756 184.84559832 492.97577756 187.85540771 493.38923645 C188.93018372 493.39589828 190.00495972 493.40256012 191.11230469 493.40942383 C192.33326843 493.42906693 193.55423218 493.44871002 194.81219482 493.46894836 C196.78267792 493.46304939 196.78267792 493.46304939 198.79296875 493.45703125 C200.15490935 493.47015013 201.5168305 493.48545496 202.87872314 493.50285339 C206.45609809 493.54269581 210.03296402 493.55289317 213.61053467 493.55688477 C217.26395095 493.5662179 220.91706833 493.60363237 224.5703125 493.63867188 C231.73307545 493.70323956 238.89553322 493.73648605 246.05859375 493.75 C246.35515869 492.79843018 246.65172363 491.84686035 246.95727539 490.86645508 C248.08998462 487.66117171 248.89588221 486.51207738 251.49609375 484.4375 C252.09292969 483.94636719 252.68976562 483.45523437 253.3046875 482.94921875 C257.50070739 480.08022519 262.18058905 480.18867369 267.05859375 480.75 C272.97368645 482.59517152 276.54279193 485.74264589 280.05859375 490.75 C281.75728213 495.84606514 282.07012494 501.74289368 280.33984375 506.88671875 C277.80161517 511.60495817 274.4133603 514.44179636 269.80859375 517 C264.43152284 518.46647388 259.26777336 518.72992981 254.24609375 516.0625 C251.05859375 513.75 251.05859375 513.75 249.25883484 511.12188721 C247.25435215 508.47262753 247.25435215 508.47262753 244.126297 508.2789917 C242.98480698 508.34773499 241.84331696 508.41647827 240.66723633 508.48730469 C239.36613922 508.54735184 238.06504211 508.60739899 236.72451782 508.66926575 C236.02970936 508.71137491 235.33490089 508.75348408 234.61903763 508.79686928 C230.89276387 509.0119313 227.16291443 509.11182978 223.43237305 509.22436523 C222.65378937 509.24927882 221.87520569 509.27419241 221.07302856 509.29986095 C177.6831789 510.63857892 177.6831789 510.63857892 166.01243591 500.46957397 C160.75810513 495.26879245 156.49725513 489.28100792 153.05859375 482.75 C149.4271493 484.15782465 145.92292052 485.73228775 142.41796875 487.4296875 C141.34675781 487.94660156 140.27554687 488.46351563 139.171875 488.99609375 C138.06199219 489.53363281 136.95210937 490.07117188 135.80859375 490.625 C128.60526039 494.11212605 121.40123113 497.56441776 114.05859375 500.75 C116.55424626 503.27516805 119.05591826 505.79429373 121.55859375 508.3125 C122.60273437 509.36920898 122.60273437 509.36920898 123.66796875 510.44726562 C124.3640625 511.14658203 125.06015625 511.84589844 125.77734375 512.56640625 C126.40576172 513.20006104 127.03417969 513.83371582 127.68164062 514.48657227 C131.0429208 517.68731472 134.55484976 520.70687764 138.05859375 523.75 C171.19491034 552.62271054 171.19491034 552.62271054 173.1953125 564.26953125 C173.42461943 568.59896924 172.98959778 572.58496718 172.31640625 576.85546875 C171.84454026 579.39722893 171.84454026 579.39722893 172.05859375 581.75 C173.60967766 583.82169923 175.14391995 585.06766384 177.29858398 586.48803711 C180.30837539 588.64611892 181.0449258 591.29160348 182.05859375 594.75 C182.76222296 601.08266292 181.68484277 605.47439256 178.05859375 610.75 C172.72309149 615.82523386 168.11885124 616.09987281 161.0078125 616.03125 C155.72648568 615.52760029 153.17141093 612.98312174 149.74609375 609.1875 C146.42256258 604.38684387 146.42397015 599.40158045 147.05859375 593.75 C148.50110054 589.90093486 150.77756988 586.28533663 154.05859375 583.75 C154.71859375 583.75 155.37859375 583.75 156.05859375 583.75 C156.86082403 570.6057708 156.86082403 570.6057708 151.40751648 559.0488615 C148.66643308 556.0111491 145.77528001 553.17116454 142.80859375 550.35546875 C141.55048664 549.10302818 140.29557536 547.84737002 139.04370117 546.58869934 C136.43102256 543.98103254 133.79083299 541.40652654 131.12451172 538.85375977 C127.71217028 535.58412425 124.3686274 532.25310235 121.04159546 528.89693737 C118.46489053 526.30768312 115.86126038 523.74702086 113.2479248 521.19478798 C112.00337613 519.97511383 110.76587 518.74820901 109.5357666 517.51396751 C103.38257363 510.83226168 103.38257363 510.83226168 95.39865112 507.43222046 C93.03700405 507.92698714 91.19493124 508.6447062 89.05859375 509.75 C88.19637207 510.00555664 87.33415039 510.26111328 86.44580078 510.52441406 C85.39175049 510.89131348 85.39175049 510.89131348 84.31640625 511.265625 C83.49068115 511.54462646 82.66495605 511.82362793 81.81420898 512.11108398 C80.94610596 512.40442627 80.07800293 512.69776855 79.18359375 513 C70.38727634 515.88826314 61.53355824 518.18242296 52.49609375 520.1875 C50.75706787 520.57566895 50.75706787 520.57566895 48.98291016 520.97167969 C44.23069561 521.99588203 39.92652238 522.8073792 35.05859375 522.75 C34.74155097 530.53808318 34.57162794 538.3201184 34.49707031 546.11425781 C34.46531099 548.76153803 34.38174568 551.39211616 34.2734375 554.0390625 C33.2945812 570.7465301 33.2945812 570.7465301 40.03613281 585.44238281 C43.75566407 589.38619304 47.78723268 592.82599976 52.07901001 596.12947083 C54.45004027 598.07044641 56.17822218 600.3441804 58.05859375 602.75 C61.11840181 603.4198606 61.11840181 603.4198606 64.43359375 603.3125 C69.82109426 603.53572231 72.96133788 603.96791766 77.05859375 607.75 C81.81509592 613.02071862 82.41280885 617.10999398 82.33984375 624.0234375 C81.81079157 629.1523045 79.16196928 631.7779787 75.43359375 635.0625 C70.3033259 638.70769031 65.19877438 638.3052719 59.05859375 637.75 C54.37564478 635.70653136 51.55901783 632.56673957 48.98461914 628.23046875 C47.84226045 625.17052563 48.31272244 623.38622698 48.83203125 620.1875 C49.03507649 616.92754464 49.03507649 616.92754464 48.05859375 613.75 C45.95990975 611.64035188 44.10469142 610.04944286 41.71484375 608.34375 C21.11094915 593.27042111 21.11094915 593.27042111 18.22845459 581.3036499 C16.86658629 571.87244807 16.90404911 562.43884781 17.24609375 552.9375 C17.27091827 552.24405487 17.2957428 551.55060974 17.32131958 550.83615112 C17.65634213 542.12137549 18.24499025 533.4332086 19.05859375 524.75 C18.115 524.894375 17.17140625 525.03875 16.19921875 525.1875 C14.9153125 525.373125 13.63140625 525.55875 12.30859375 525.75 C11.055625 525.935625 9.80265625 526.12125 8.51171875 526.3125 C3.05169254 526.84892363 -2.45509269 526.75 -7.94140625 526.75 C-7.94140625 560.08 -7.94140625 593.41 -7.94140625 627.75 C-6.29140625 628.41 -4.64140625 629.07 -2.94140625 629.75 C2.61732785 633.58004025 7.33349475 638.08533181 9.05859375 644.75 C10.01247281 652.43553988 9.97557279 659.25991674 5.6015625 665.8515625 C0.27161927 672.4094167 -5.54628918 675.86622183 -13.9765625 677.03125 C-21.2323923 677.37745261 -27.60690519 675.14050548 -33.25390625 670.625 C-38.92510525 665.20283569 -41.11407447 659.60913558 -41.50390625 651.8125 C-41.21691816 644.53596321 -38.90640219 638.96746094 -33.96875 633.609375 C-30.55285668 630.46803012 -28.53202008 628.89765346 -23.94140625 627.75 C-23.94140625 594.42 -23.94140625 561.09 -23.94140625 526.75 C-30.87140625 526.42 -37.80140625 526.09 -44.94140625 525.75 C-46.92140625 525.42 -48.90140625 525.09 -50.94140625 524.75 C-50.87034668 525.31787231 -50.79928711 525.88574463 -50.72607422 526.4708252 C-45.51289896 570.19317782 -45.51289896 570.19317782 -56.00048828 583.61663818 C-62.51404581 590.95863064 -70.02823626 597.51182977 -78.06298828 603.15383911 C-81.77813441 605.85127302 -81.77813441 605.85127302 -83.32714844 609.9977417 C-83.3385657 612.3726705 -83.3385657 612.3726705 -83.06542969 614.6289978 C-82.79923793 619.18130913 -85.33376501 622.79513519 -87.69140625 626.5 C-91.59209738 630.40069113 -95.46333627 631.58577 -100.87890625 632.1875 C-106.32928796 631.92343112 -110.70511906 630.0025314 -114.5546875 626.125 C-118.19853269 621.19811073 -118.47310343 616.58561865 -118.41015625 610.58203125 C-117.60348316 605.70838133 -115.17034545 602.60744933 -111.44140625 599.5 C-110.85359375 598.99984375 -110.26578125 598.4996875 -109.66015625 597.984375 C-106.66813545 595.83556006 -104.00598418 595.61311807 -100.44140625 595.625 C-99.66796875 595.62242187 -98.89453125 595.61984375 -98.09765625 595.6171875 C-95.94140625 595.75 -95.94140625 595.75 -92.94140625 596.75 C-88.06121773 591.96940717 -83.26104213 587.19694357 -78.94262695 581.89599609 C-76.94140625 579.75 -76.94140625 579.75 -74.44555664 578.01391602 C-70.39858679 574.95181669 -67.53052001 572.28544905 -66.3710022 567.29507446 C-65.49835133 560.09572473 -65.6918145 552.86206199 -65.81640625 545.625 C-65.81835025 543.40624932 -65.81578896 541.18748986 -65.80859375 538.96875 C-65.80080598 533.56130544 -65.84905861 528.15661291 -65.94140625 522.75 C-66.66481201 522.7075415 -67.38821777 522.66508301 -68.13354492 522.62133789 C-75.69586784 522.09571239 -82.87939811 520.91911313 -90.25390625 519.1875 C-91.36531982 518.93154053 -92.4767334 518.67558105 -93.62182617 518.41186523 C-102.52447559 516.27722331 -111.09964388 513.48354186 -119.64379883 510.20288086 C-120.53220459 509.86909424 -121.42061035 509.53530762 -122.3359375 509.19140625 C-123.49379761 508.73809937 -123.49379761 508.73809937 -124.67504883 508.27563477 C-127.4854779 507.62381382 -129.1696084 507.97389332 -131.94140625 508.75 C-133.80740234 510.03874604 -133.80740234 510.03874604 -135.42724609 511.76586914 C-136.06495941 512.40065689 -136.70267273 513.03544464 -137.35971069 513.68946838 C-138.0337796 514.38104538 -138.70784851 515.07262238 -139.40234375 515.78515625 C-140.11113678 516.4972374 -140.81992981 517.20931854 -141.55020142 517.94297791 C-143.81510524 520.22362515 -146.06550819 522.51803772 -148.31640625 524.8125 C-149.82335115 526.33093965 -151.33115486 527.84852751 -152.83984375 529.36523438 C-154.29894747 530.83777871 -155.75730458 532.31106329 -157.21484375 533.78515625 C-157.8848642 534.46256363 -158.55488464 535.13997101 -159.24520874 535.83790588 C-163.12780461 539.79788168 -166.85080643 543.85629848 -170.46817017 548.06028748 C-172.20556594 550.05297516 -174.03987299 551.91403686 -175.94140625 553.75 C-179.30136077 557.0576595 -182.42954512 560.50592026 -185.49609375 564.0859375 C-186.59543423 565.35166464 -187.75594965 566.5645434 -188.94140625 567.75 C-189.0317924 570.38157763 -189.0317924 570.38157763 -188.81640625 573.375 C-188.7221369 579.93457555 -189.84593202 584.43402623 -194.3671875 589.27734375 C-198.40217412 592.87442484 -201.94060258 594.52349392 -207.25390625 595.125 C-213.05496072 594.53506226 -217.24714371 592.48884839 -221.31640625 588.3125 C-224.94582721 582.58918233 -225.93598145 577.48645267 -224.94140625 570.75 C-222.74704772 565.24055906 -219.3600507 561.25863169 -213.94140625 558.75 C-212.19267782 558.6676728 -210.44198114 558.62301352 -208.69140625 558.60522461 C-203.2504538 558.15646258 -200.91662751 556.72688614 -197.35424805 552.68919373 C-196.76426025 551.96804886 -196.17427246 551.24690399 -195.56640625 550.50390625 C-194.19393039 548.94080526 -192.81742479 547.38123595 -191.4375 545.82470703 C-190.7141748 544.99706848 -189.99084961 544.16942993 -189.24560547 543.31671143 C-185.21099625 538.8224483 -180.91457544 534.59301745 -176.62890625 530.33984375 C-175.75419678 529.46671539 -174.8794873 528.59358704 -173.97827148 527.69400024 C-171.3018658 525.02259609 -168.62171946 522.35498295 -165.94140625 519.6875 C-164.08700249 517.83812833 -162.23283452 515.9885202 -160.37890625 514.13867188 C-155.90244306 509.67306273 -151.42312038 505.21033894 -146.94140625 500.75 C-147.97168945 500.23775879 -149.00197266 499.72551758 -150.06347656 499.19775391 C-162.66940871 492.91877013 -162.66940871 492.91877013 -168.73828125 489.7109375 C-169.57101562 489.27652344 -170.40375 488.84210938 -171.26171875 488.39453125 C-172.93440479 487.52053935 -174.60077319 486.6343841 -176.26171875 485.73828125 C-177.48761719 485.10599609 -177.48761719 485.10599609 -178.73828125 484.4609375 C-179.45338867 484.08243652 -180.16849609 483.70393555 -180.90527344 483.31396484 C-182.93283479 482.55601381 -182.93283479 482.55601381 -184.89477539 483.34814453 C-187.52208432 485.14773988 -189.64339275 487.21068618 -191.890625 489.46875 C-193.28571289 490.86673828 -193.28571289 490.86673828 -194.70898438 492.29296875 C-195.18795166 492.77813965 -195.66691895 493.26331055 -196.16040039 493.76318359 C-197.62919223 495.25028955 -199.10588729 496.72917958 -200.58398438 498.20703125 C-205.29694299 502.57385266 -205.29694299 502.57385266 -208.94140625 507.75 C-210.23020691 507.74547569 -210.23020691 507.74547569 -211.54504395 507.74085999 C-219.66619294 507.71855909 -227.78646234 507.72990126 -235.90750885 507.77846622 C-240.08214488 507.80225975 -244.25598473 507.81331744 -248.43066406 507.79467773 C-252.46419166 507.7771467 -256.49629328 507.79384309 -260.52964783 507.83367729 C-262.06369064 507.84292847 -263.59785799 507.84011462 -265.1318512 507.82469368 C-275.18498425 507.56600835 -275.18498425 507.56600835 -283.75976562 512.24389648 C-284.32223999 512.87384018 -284.88471436 513.50378387 -285.4642334 514.15281677 C-288.02015046 516.91638493 -291.05404354 516.97908724 -294.62890625 517.125 C-300.21924533 517.05971137 -303.75810767 515.39227151 -307.94140625 511.75 C-311.67977796 507.62820555 -312.76595924 503.77888569 -313.1015625 498.34375 C-312.78524284 493.22091456 -310.90975532 488.89775589 -307.44140625 485.11328125 C-302.49583628 480.79827145 -298.12553584 480.34373986 -291.8046875 480.40234375 C-287.3309374 480.94554124 -284.26007569 482.7648243 -280.94140625 485.75 C-278.64112691 488.76911664 -277.94140625 489.95801854 -277.94140625 493.75 C-257.81140625 493.75 -237.68140625 493.75 -216.94140625 493.75 C-216.28140625 492.43 -215.62140625 491.11 -214.94140625 489.75 C-213.35327148 487.95068359 -213.35327148 487.95068359 -211.5 486.1484375 C-210.50129883 485.16617188 -210.50129883 485.16617188 -209.48242188 484.1640625 C-208.78826172 483.49117187 -208.09410156 482.81828125 -207.37890625 482.125 C-206.00042088 480.78088131 -204.62401224 479.43462847 -203.25 478.0859375 C-202.63954834 477.49345215 -202.02909668 476.9009668 -201.40014648 476.29052734 C-199.84329843 474.79565952 -199.84329843 474.79565952 -198.94140625 472.75 C-199.6271875 472.51023437 -200.31296875 472.27046875 -201.01953125 472.0234375 C-204.51166107 470.50146648 -207.55585358 468.51038367 -210.69140625 466.375 C-211.34189941 465.93583252 -211.99239258 465.49666504 -212.66259766 465.04418945 C-214.76120718 463.62089979 -216.85256349 462.18758139 -218.94140625 460.75 C-219.62879883 460.2770752 -220.31619141 459.80415039 -221.02441406 459.31689453 C-235.81338546 449.09786103 -250.15794887 438.29339329 -263.94140625 426.75 C-264.44591309 426.33041016 -264.95041992 425.91082031 -265.47021484 425.47851562 C-273.50523759 418.79283013 -281.2957633 411.87805055 -288.94140625 404.75 C-289.56450684 404.1720166 -290.18760742 403.5940332 -290.82958984 402.99853516 C-313.45294032 382.01127355 -313.45294032 382.01127355 -322.3671875 371.54296875 C-323.98907815 369.69570371 -325.6880083 367.97243286 -327.44140625 366.25 C-330.43375 363.30399785 -333.19464797 360.22016993 -335.93359375 357.0390625 C-337.88575537 354.81344633 -339.88474958 352.63670406 -341.89819336 350.46655273 C-347.50566901 344.42082714 -352.79883484 338.20043525 -357.94140625 331.75 C-356.48501494 326.99245506 -353.63568765 323.93889922 -350.25390625 320.4375 C-349.15679346 319.27675824 -348.06043468 318.11530331 -346.96484375 316.953125 C-346.43858398 316.39818359 -345.91232422 315.84324219 -345.37011719 315.27148438 C-343.6591731 313.44944002 -342.01002101 311.58118446 -340.37890625 309.6875 C-336.6687778 305.39963866 -332.82358682 301.23852817 -328.98046875 297.0703125 C-327.32660491 295.27611398 -325.69336117 293.46871746 -324.0793457 291.63842773 C-317.88430585 284.63935841 -311.35692711 278.01242882 -304.73901367 271.41723633 C-302.87497381 269.55857892 -301.01637113 267.69460386 -299.15820312 265.83007812 C-293.25310959 259.92168408 -287.31317331 254.15876027 -280.94140625 248.75 C-279.16570404 247.13032183 -277.39432318 245.50588282 -275.62890625 243.875 C-270.22443206 238.95781447 -264.6621535 234.29274921 -258.94140625 229.75 C-257.99249512 228.99227295 -257.99249512 228.99227295 -257.02441406 228.21923828 C-245.32984843 218.90486071 -233.31322624 210.14269921 -220.94140625 201.75 C-220.24257324 201.27498047 -219.54374023 200.79996094 -218.82373047 200.31054688 C-179.83608554 173.99696278 -120.33195911 138.25390222 -71.94140625 139.75 C-75.47121861 135.60247047 -79.05874476 131.5719949 -82.94140625 127.75 C-86.30136077 124.4423405 -89.42954512 120.99407974 -92.49609375 117.4140625 C-93.59543423 116.14833536 -94.75594965 114.9354566 -95.94140625 113.75 C-96.16845703 110.95263672 -96.16845703 110.95263672 -96.13671875 107.4296875 C-96.13027344 106.17285156 -96.12382812 104.91601562 -96.1171875 103.62109375 C-96.10042969 102.30238281 -96.08367187 100.98367188 -96.06640625 99.625 C-96.05637608 98.28516279 -96.04725029 96.94531848 -96.0390625 95.60546875 C-96.015427 92.32013427 -95.98247859 89.03515535 -95.94140625 85.75 C-96.73071533 85.45053467 -97.52002441 85.15106934 -98.33325195 84.8425293 C-103.44656153 82.70061594 -106.22462094 78.40172267 -108.37890625 73.4375 C-109.32215241 67.25399738 -109.09716627 61.97896575 -106.19140625 56.375 C-102.18262028 51.69808304 -98.15621531 48.28392975 -91.90625 47.4921875 C-86.08996679 47.19289334 -81.70180634 48.35860386 -76.94140625 51.75 C-73.2537638 55.2546329 -71.09783456 58.49683072 -70.73828125 63.67578125 C-70.57997316 75.11354057 -70.57997316 75.11354057 -73.94140625 79.75 C-74.78832031 80.39195312 -75.63523437 81.03390625 -76.5078125 81.6953125 C-80.15370135 86.27169304 -79.74873953 90.4346719 -79.69140625 96.125 C-79.7275 97.14078125 -79.76359375 98.1565625 -79.80078125 99.203125 C-79.81514611 104.87992766 -79.81514611 104.87992766 -77.45092773 109.89770508 C-75.69358887 111.6466568 -73.87702749 113.20345108 -71.94140625 114.75 C-70.77704275 116.04608947 -69.62644978 117.35502625 -68.50390625 118.6875 C-65.38862547 122.31024734 -62.07170246 125.66505691 -58.640625 128.98828125 C-56.11616261 131.60559743 -54.94140625 133.04629739 -54.94140625 136.75 C-54.32394531 136.61722656 -53.70648438 136.48445312 -53.0703125 136.34765625 C-43.11828729 134.2724242 -34.27042247 133.75 -23.94140625 133.75 C-23.94140625 104.71 -23.94140625 75.67 -23.94140625 45.75 C-25.59140625 45.09 -27.24140625 44.43 -28.94140625 43.75 C-35.84035064 38.99653739 -39.33344308 33.5738895 -41.94140625 25.75 C-42.92968285 16.77450428 -40.71274348 9.97343431 -35.12890625 2.9375 C-25.29188427 -7.79606069 -11.62438719 -7.48451489 0 0 Z " fill="#F9F9F9" transform="translate(527.94140625,175.25)"/>
<path d="M0 0 C2.45646245 2.17978327 4.86465727 4.39926958 7.25390625 6.65234375 C8.26517578 7.58433594 8.26517578 7.58433594 9.296875 8.53515625 C31.74636967 29.9540354 45.58080626 59.76846119 52.25390625 89.65234375 C52.46917969 90.58949219 52.68445313 91.52664063 52.90625 92.4921875 C61.61210574 132.71705383 50.89927497 175.35708421 29.25390625 209.65234375 C26.43514994 213.81385306 23.42469323 217.75375173 20.25390625 221.65234375 C19.8067627 222.20631836 19.35961914 222.76029297 18.89892578 223.33105469 C-8.252848 256.75579234 -47.31288823 279.37830136 -90.38671875 284.21484375 C-132.41326178 288.13536348 -175.4833323 277.76799511 -208.74609375 251.02734375 C-210.42573961 249.58397835 -212.09291226 248.12594642 -213.74609375 246.65234375 C-215.01839844 245.54246094 -215.01839844 245.54246094 -216.31640625 244.41015625 C-218.82667732 242.19159864 -221.2926174 239.93343532 -223.74609375 237.65234375 C-224.473125 236.99105469 -225.20015625 236.32976562 -225.94921875 235.6484375 C-254.43729362 208.64625143 -270.78051932 167.34872587 -271.99609375 128.58203125 C-272.97469618 81.85594326 -257.27541967 40.63285054 -224.9296875 6.84375 C-164.37631585 -54.72102965 -64.43200567 -55.08340741 0 0 Z " fill="#131313" transform="translate(620.74609375,383.34765625)"/>
<path d="M0 0 C3.0625 2.5 3.0625 2.5 5 5 C5.33 5.33 5.66 5.66 6 6 C6.2734375 7.85546875 6.2734375 7.85546875 6.375 10.1875 C6.42398438 10.94417969 6.47296875 11.70085937 6.5234375 12.48046875 C6 15 6 15 3.51147461 17.47827148 C-0.16443062 21.78059702 0.27156213 26.43966412 0.29296875 31.8671875 C0.27028679 33.41927414 0.27028679 33.41927414 0.24714661 35.00271606 C0.20430586 38.29369969 0.19543474 41.58376542 0.1875 44.875 C0.164353 47.11200351 0.13898725 49.34898523 0.11132812 51.5859375 C0.04851178 57.05730041 0.01354878 62.52830516 0 68 C0.60976181 68.06040466 1.21952362 68.12080933 1.84776306 68.18304443 C2.65202225 68.2666925 3.45628143 68.35034058 4.28491211 68.43652344 C5.08029892 68.5175531 5.87568573 68.59858276 6.69517517 68.68206787 C15.14014225 69.84698346 23.06605831 74.24141257 30 79 C30.2475 78.443125 30.495 77.88625 30.75 77.3125 C32 75 32 75 34.08203125 72.77734375 C36.68410655 69.00936913 36.72778161 66.04977391 36.6875 61.5625 C36.68532471 60.79695801 36.68314941 60.03141602 36.6809082 59.24267578 C36.55059705 55.86042614 36.43551022 53.65210705 34.53125 50.80078125 C32.7178876 49.34839945 32.7178876 49.34839945 30.7578125 48.17578125 C27.71063834 46.13756031 27.01300217 43.39653668 26 40 C25.19157868 34.44210343 26.50184127 31.28352246 29.5625 26.796875 C31.94786158 23.81517302 34.59877094 21.70061453 38 20 C43.55531248 19.4927035 48.41830236 19.23739578 53.5 21.6875 C60.76311164 28.40587827 60.76311164 28.40587827 61.23828125 33.609375 C61.48734758 44.14881343 61.48734758 44.14881343 57 49 C52.68421053 53 52.68421053 53 49 53 C49.04713135 53.60884033 49.0942627 54.21768066 49.14282227 54.8449707 C50.48287404 74.76858154 50.48287404 74.76858154 44.5 81.875 C41.96875 84.3671875 41.96875 84.3671875 40 86 C40.58007812 86.65355469 40.58007812 86.65355469 41.171875 87.3203125 C41.69265625 87.91585937 42.2134375 88.51140625 42.75 89.125 C43.31203125 89.75792969 43.8740625 90.39085937 44.453125 91.04296875 C46 93 46 93 47.5 96.4375 C50.7032723 99.7208541 52.29734358 99.57410737 56.8125 99.8125 C61.50192961 99.60375727 64.54995456 99.36434307 67.9375 96 C68.9900537 94.69156231 70.01063302 93.35684614 71 92 C72.15623661 90.65761191 73.32311314 89.32432104 74.5 88 C75.06847656 87.32582031 75.63695312 86.65164063 76.22265625 85.95703125 C78 84 78 84 79.99609375 82.32421875 C83.92394956 79.05531812 83.92394956 79.05531812 85.296875 74.29296875 C85.22478951 72.36983086 85.12515772 70.44749951 84.99609375 68.52734375 C85 66 85 66 86.75 62.9375 C90.13078329 60.02626995 91.8726082 59.10438813 96.375 58.6875 C101.13370225 59.09773295 104.2566118 60.4369623 107.8125 63.625 C109.65927848 67.31855696 110.23606866 70.87952885 110 75 C107.83791192 79.49049063 105.50030243 81.90683608 101 84 C99.93136719 84.21269531 98.86273437 84.42539062 97.76171875 84.64453125 C92.85490135 86.41261603 90.50486152 89.08299743 87.125 92.9375 C86.51205078 93.60467041 85.89910156 94.27184082 85.26757812 94.95922852 C82.50673139 97.99899642 79.89332586 101.03756024 77.5859375 104.4375 C72.52188169 111.72063645 72.52188169 111.72063645 67.33984375 112.671875 C63.82001878 112.68596839 60.48274188 112.49045725 57 112 C57.20496094 112.51046875 57.40992188 113.0209375 57.62109375 113.546875 C60.18746935 120.47240532 60.34168766 125.10025191 61 133 C73.87 133 86.74 133 100 133 C100.99 130.03 100.99 130.03 102 127 C106.13242248 122.12852967 110.95426655 119.28733334 117.3125 118.6875 C124.09378279 119.26218498 128.32548084 120.86924658 132.9375 126 C136.98698186 130.87044743 137.35520531 134.95470814 137.2734375 141.14453125 C136.78452915 146.2501313 135.09221418 150.09323208 131.28125 153.56640625 C125.44222047 157.90856592 120.19095007 158.74683458 113 158 C106.57217946 156.15394773 103.3464694 152.64716712 100 147 C100 146.34 100 145.68 100 145 C87.13 145 74.26 145 61 145 C61 147.97 61 150.94 61 154 C60.08984375 157.546875 60.08984375 157.546875 58.9375 160.75 C57.39288972 165.05618622 56.67308697 167.59296378 58 172 C59.52761025 174.05784191 59.52761025 174.05784191 61.52734375 175.8828125 C62.23697266 176.57503906 62.94660156 177.26726562 63.67773438 177.98046875 C64.42345703 178.68816406 65.16917969 179.39585937 65.9375 180.125 C67.40699569 181.54215049 68.87452989 182.96133849 70.33984375 184.3828125 C71.32005493 185.31697998 71.32005493 185.31697998 72.32006836 186.27001953 C74 188 74 188 76 191 C78.70242428 191.33292907 81.11162924 191.46395555 83.8125 191.4375 C84.52470703 191.45748047 85.23691406 191.47746094 85.97070312 191.49804688 C91.03297886 191.49336392 93.3428812 190.39031832 97 187 C101.36633051 185.68186249 104.16346347 185.78043489 108.25 187.625 C111.66925131 189.56655161 113.59234164 191.21691815 115 195 C115.5701247 200.22614305 114.82117855 203.56671942 112 208 C108.25594923 211.40368251 105.39257404 211.56037919 100.484375 211.4296875 C96.44626449 210.73127216 94.72016226 209.00649513 92 206 C92 205.34 92 204.68 92 204 C91.0867395 204.0942627 91.0867395 204.0942627 90.1550293 204.19042969 C71.55785864 205.85821114 71.55785864 205.85821114 66.40625 201.64453125 C63.56590042 198.70740656 61.33150535 195.34502915 59 192 C57.30762758 190.25520897 55.58087517 188.54271382 53.8125 186.875 C52.50285854 185.62269836 51.2181485 184.34146724 50 183 C50 182.34 50 181.68 50 181 C49.34 181 48.68 181 48 181 C47.77828125 181.71027344 47.5565625 182.42054688 47.328125 183.15234375 C45.71393489 186.61335724 43.45594618 188.94723567 40.75 191.5625 C39.81671875 192.49191406 38.8834375 193.42132812 37.921875 194.37890625 C35.05000276 196.95514458 32.25423078 198.95407089 29 201 C30.39848491 204.13031446 32.05620549 206.34860032 34.4140625 208.828125 C35.09339844 209.54613281 35.77273438 210.26414062 36.47265625 211.00390625 C37.18292969 211.74511719 37.89320313 212.48632812 38.625 213.25 C39.65560547 214.33861328 39.65560547 214.33861328 40.70703125 215.44921875 C42.09519092 216.91030238 43.48958604 218.36548697 44.89013672 219.81469727 C46.32030404 221.2960011 47.73829832 222.78913721 49.14501953 224.29272461 C49.83450684 225.01468018 50.52399414 225.73663574 51.234375 226.48046875 C51.84764648 227.13168701 52.46091797 227.78290527 53.09277344 228.45385742 C55.2879133 230.23340436 56.85591108 230.64706046 59.625 231.0625 C64.10177375 231.74526619 66.26307682 233.31173655 68.95703125 236.94140625 C70.85160415 240.68088159 71.08723209 243.9637397 70 248 C67.65414432 251.91706743 65.36678962 254.54440346 61 256 C56.84713223 256.39177998 54.51030413 256.25515206 50.75 254.375 C47.65381789 251.70102454 46.35861205 249.84940081 45 246 C45.15275391 244.36804688 45.15275391 244.36804688 45.30859375 242.703125 C44.88089169 237.57070028 42.64473993 235.87865535 38.9375 232.5625 C37.73128843 231.4250665 36.52684627 230.28575356 35.32421875 229.14453125 C34.74462402 228.6026416 34.1650293 228.06075195 33.56787109 227.50244141 C31.66955577 225.68334572 29.94490292 223.75892294 28.25 221.75 C27.71761719 221.14929688 27.18523437 220.54859375 26.63671875 219.9296875 C25 218 25 218 23.14453125 215.4453125 C20.86096718 212.62620338 19.13281572 210.85497046 16 209 C13.02210242 209.04404689 10.57144169 209.24548623 7.68359375 209.7578125 C6.94330933 209.87068604 6.2030249 209.98355957 5.44030762 210.09985352 C3.62365821 210.379789 1.81127703 210.68718299 0 211 C0.04167423 217.31761758 0.11400485 223.63435456 0.20751953 229.95141602 C0.23572127 232.09977261 0.25693975 234.24823281 0.27099609 236.39672852 C0.29243623 239.48768119 0.33909311 242.57738922 0.390625 245.66796875 C0.39246796 247.10573921 0.39246796 247.10573921 0.39434814 248.57255554 C0.51443085 254.05677175 0.95067002 256.95611467 5 261 C5.95028688 264.76837899 5.87244714 268.45148681 3.94140625 271.87890625 C1.45412394 274.94188001 -0.44070738 276.82164954 -4.390625 277.2734375 C-13.05997149 277.58136511 -13.05997149 277.58136511 -16.625 274.625 C-19.44605726 271.50698934 -20.20474091 269.91047069 -20.4375 265.8125 C-20.49808594 265.07644531 -20.55867187 264.34039063 -20.62109375 263.58203125 C-19.91174933 260.63312142 -19.12836932 260.02661298 -17.01147461 257.95556641 C-13.17558644 253.57559476 -13.13714327 249.77425239 -13.1953125 244.12890625 C-13.18160614 243.206577 -13.16789978 242.28424774 -13.15377808 241.33396912 C-13.11661003 238.4096439 -13.12018398 235.48702705 -13.125 232.5625 C-13.10686397 230.57093715 -13.08605844 228.57939671 -13.0625 226.58789062 C-13.01077264 221.72497583 -12.99556077 216.86317474 -13 212 C-13.88042969 211.87882813 -14.76085937 211.75765625 -15.66796875 211.6328125 C-17.41013672 211.38144531 -17.41013672 211.38144531 -19.1875 211.125 C-20.91033203 210.88136719 -20.91033203 210.88136719 -22.66796875 210.6328125 C-25.68724625 210.05939755 -28.20575848 209.25240957 -31 208 C-30.9685791 209.15786011 -30.9685791 209.15786011 -30.93652344 210.33911133 C-30.85347328 213.83010885 -30.80137406 217.3208988 -30.75 220.8125 C-30.71648437 222.02744141 -30.68296875 223.24238281 -30.6484375 224.49414062 C-30.62910156 226.23920898 -30.62910156 226.23920898 -30.609375 228.01953125 C-30.5779541 229.62985229 -30.5779541 229.62985229 -30.54589844 231.27270508 C-31 234 -31 234 -32.86035156 235.88549805 C-35 237 -35 237 -37.625 236.8125 C-40 236 -40 236 -42 234 C-42.31884766 230.92724609 -42.31884766 230.92724609 -42.4140625 227.0234375 C-42.43342865 226.33819 -42.4527948 225.6529425 -42.4727478 224.94692993 C-42.53256831 222.75641356 -42.57893756 220.5658447 -42.625 218.375 C-42.66317763 216.89060198 -42.70222924 215.40622616 -42.7421875 213.921875 C-42.83827084 210.28145315 -42.92229282 206.64086564 -43 203 C-44.98 202.01 -46.96 201.02 -49 200 C-56.09485162 206.94965976 -56.09485162 206.94965976 -62.41796875 214.58984375 C-64.67404562 216.60081598 -67.12991953 217.17827572 -70 218 C-69.96675108 220.54505341 -69.89935637 223.08166732 -69.8125 225.625 C-69.80669922 226.33785156 -69.80089844 227.05070313 -69.79492188 227.78515625 C-69.55682216 233.55246049 -67.84730939 235.77763844 -64 240 C-62.73554233 244.27245325 -63.73856718 247.49580814 -65.75 251.375 C-68.43712543 254.50997967 -70.30828904 255.76343554 -74.40234375 256.3359375 C-78.64465711 256.40130442 -81.26810834 256.4269368 -85 254.25 C-88.0103761 250.86332689 -88.89710076 249.13189161 -89.3125 244.5625 C-88.89560375 239.80988276 -87.3225977 237.3225977 -84 234 C-84.07993978 231.95943198 -84.16526286 229.91887981 -84.28271484 227.88012695 C-84.53454324 221.0441186 -84.19753334 215.82521223 -79.625 210.46484375 C-76.29224811 207.04097727 -72.7125442 203.93182979 -69.06152344 200.85400391 C-65.72200236 197.85064968 -62.86121448 194.45367677 -60 191 C-61.57513866 188.24350734 -63.17905786 185.78001463 -65.1875 183.3125 C-67 181 -67 181 -67 179 C-81.32113658 177.67017842 -81.32113658 177.67017842 -94.05859375 182.78515625 C-97.12346199 185.91557108 -99.56667491 189.36508606 -102 193 C-102.75023437 193.86238281 -103.50046875 194.72476563 -104.2734375 195.61328125 C-106.23577419 198.32592314 -106.43229477 199.6425896 -106.4375 202.9375 C-106.78035994 208.28770974 -108.03841721 210.3985611 -112 214 C-115.55367082 216.20903862 -118.85567212 216.40617937 -122.99609375 215.72265625 C-126.91015827 214.3111515 -129.1397472 211.64582391 -131 208 C-132.08026794 203.20527229 -131.46964491 199.92251678 -129.25 195.5625 C-126.17884348 192.06479396 -124.30702438 191.25603138 -119.76953125 190.3671875 C-115.08793274 189.03080282 -112.60337975 185.96538603 -109.5 182.375 C-108.92378906 181.74706543 -108.34757812 181.11913086 -107.75390625 180.47216797 C-105.35676858 177.83653956 -103.20903651 175.34116336 -101.34375 172.296875 C-99.79899166 169.80011443 -98.45747553 168.60215266 -96 167 C-93.57055664 166.56787109 -93.57055664 166.56787109 -90.91015625 166.5234375 C-89.95818359 166.50522949 -89.00621094 166.48702148 -88.02539062 166.46826172 C-83.67381643 166.51487548 -79.34099372 166.69663799 -75 167 C-75.28875 165.98679687 -75.5775 164.97359375 -75.875 163.9296875 C-76.25040295 162.57823687 -76.62538041 161.22666799 -77 159.875 C-77.19078125 159.20984375 -77.3815625 158.5446875 -77.578125 157.859375 C-78.74534763 153.60734972 -79 150.53358829 -79 146 C-92.2 146 -105.4 146 -119 146 C-119.66 147.65 -120.32 149.3 -121 151 C-122.62109375 152.546875 -122.62109375 152.546875 -124.4375 153.75 C-125.33275391 154.36101562 -125.33275391 154.36101562 -126.24609375 154.984375 C-130.90015214 157.6793754 -135.79049367 157.43208738 -141 157 C-146.37814249 155.24176111 -149.92191293 151.66224914 -153 147 C-154.61940298 142.08290369 -155.10347351 136.60529639 -153.05859375 131.77734375 C-150.04724691 126.72696581 -146.7116105 122.90387017 -141 121 C-134.14908312 120.25771593 -128.67847251 120.94394821 -123 125 C-119 129.1 -119 129.1 -119 133 C-105.8 133 -92.6 133 -79 133 C-79 130.69 -79 128.38 -79 126 C-78.54101562 123.73657227 -78.54101562 123.73657227 -77.90625 121.81640625 C-77.68066406 121.11708984 -77.45507812 120.41777344 -77.22265625 119.69726562 C-76.98417969 118.99279297 -76.74570312 118.28832031 -76.5 117.5625 C-76.26152344 116.83095703 -76.02304687 116.09941406 -75.77734375 115.34570312 C-75.19403828 113.5607884 -74.59830065 111.77994443 -74 110 C-78.22405511 105.57754288 -82.47422166 101.18253452 -86.75024414 96.81030273 C-88.19970096 95.32072255 -89.64188363 93.82402681 -91.07641602 92.32006836 C-93.14528346 90.15367372 -95.23935526 88.01460152 -97.33984375 85.87890625 C-97.97147934 85.20598038 -98.60311493 84.5330545 -99.25389099 83.83973694 C-103.3572367 79.7323919 -106.21311401 78.22822954 -112.06861877 78.10775757 C-114.77688209 77.95665541 -116.09653632 76.93393424 -118 75.0625 C-118.556875 74.53785156 -119.11375 74.01320313 -119.6875 73.47265625 C-122.4768158 70.34297751 -122.39053647 67.35802433 -122.3515625 63.32421875 C-121.74999769 59.34720698 -119.91523432 57.71646835 -117 55 C-113.19782843 52.65598082 -110.498585 52.85114587 -106.1875 53.4609375 C-102.97968263 54.25143535 -101.21723946 55.58119331 -99 58 C-97.5866101 60.75239086 -96.95468054 63.22043242 -96.33056641 66.25610352 C-94.6845629 70.88756477 -92.39400786 73.24973251 -88.8984375 76.58984375 C-88.30197418 77.17923233 -87.70551086 77.76862091 -87.0909729 78.37586975 C-85.19713046 80.24189029 -83.2866038 82.08969657 -81.375 83.9375 C-80.08218816 85.20521342 -78.79050855 86.47408258 -77.5 87.74414062 C-74.34627836 90.84295494 -71.17748095 93.92556049 -68 97 C-64.81119133 95.49596095 -63.03509027 94.12991436 -60.8125 91.375 C-57.47685521 87.41843431 -53.82951759 84.04374842 -49.91796875 80.6640625 C-48.56735384 79.4922459 -47.26438024 78.26438024 -46 77 C-48.9542806 74.01679077 -51.91409363 71.03913197 -54.875 68.0625 C-55.71675781 67.21236328 -56.55851562 66.36222656 -57.42578125 65.48632812 C-58.63427734 64.27299805 -58.63427734 64.27299805 -59.8671875 63.03515625 C-60.61081543 62.2862915 -61.35444336 61.53742676 -62.12060547 60.76586914 C-63.8871676 58.93702297 -63.8871676 58.93702297 -66 58 C-66.00386719 56.28103516 -66.00386719 56.28103516 -66.0078125 54.52734375 C-65.74006212 44.95978785 -65.74006212 44.95978785 -70.0625 36.9375 C-70.59746094 36.4528125 -71.13242187 35.968125 -71.68359375 35.46875 C-73.36517879 33.59256016 -73.51792404 32.43283539 -73.625 29.9375 C-72.93242056 25.5742495 -71.81038633 23.3724636 -69 20 C-64.7581081 17.17207207 -60.98126257 17.21877714 -56 18 C-52.87708835 19.68012647 -50.60835163 21.78329674 -49 25 C-48.796875 27.2421875 -48.796875 27.2421875 -48.75 29.875 C-48.72421875 30.73867188 -48.6984375 31.60234375 -48.671875 32.4921875 C-49 35 -49 35 -50.4453125 36.921875 C-53.26145519 40.68616624 -53.13295118 44.53129178 -53.08984375 49.10546875 C-51.7892369 56.41653959 -44.22042773 61.2700937 -38.7175293 65.59643555 C-37 67 -37 67 -35.47192383 68.69067383 C-34.98618896 69.12275146 -34.5004541 69.5548291 -34 70 C-29.2998627 69.71799176 -24.77228533 68.53033049 -20.2109375 67.40234375 C-17.76744598 66.9576801 -15.47889619 66.97360696 -13 67 C-13.04166405 60.39757201 -13.11398504 53.79598733 -13.20751953 47.1940918 C-13.23572642 44.94872656 -13.25694232 42.70326209 -13.27099609 40.45776367 C-13.29242892 37.22783611 -13.33908271 33.99910144 -13.390625 30.76953125 C-13.39246796 29.26613945 -13.39246796 29.26613945 -13.39434814 27.7323761 C-13.5112141 22.15775645 -13.83609558 19.08637 -18 15 C-18.92779045 11.14272947 -18.33940354 7.80385048 -16.8125 4.1875 C-12.03401972 -1.57963137 -6.9910832 -1.92857468 0 0 Z " fill="#F7F7F7" transform="translate(521,365)"/>
<path d="M0 0 C18.97757567 5.54729135 37.08776039 16.98025078 54 27 C54.90766113 27.5377002 55.81532227 28.07540039 56.75048828 28.62939453 C69.31228648 36.12591518 81.3036932 44.2184278 93 53 C93.60279785 53.44972168 94.2055957 53.89944336 94.82666016 54.36279297 C106.75786752 63.28670083 117.9940256 72.96775535 129 83 C129.87672363 83.79188721 130.75344727 84.58377441 131.65673828 85.3996582 C138.68675561 91.7825383 145.50123676 98.34432028 152.2019043 105.0715332 C153.82552229 106.70056572 155.45449603 108.32410728 157.08398438 109.94726562 C162.0287262 114.88876961 166.88900663 119.86085464 171.43286133 125.17895508 C174.1775745 128.36836395 177.06483717 131.42615182 179.9375 134.5 C180.52595703 135.13164062 181.11441406 135.76328125 181.72070312 136.4140625 C183.14605868 137.94371236 184.57287017 139.47200536 186 141 C184.66000502 144.006818 183.20154709 145.99762609 180.8125 148.25 C178.28403411 150.70026592 175.91244124 153.19832051 173.625 155.875 C170.39852835 159.62233703 166.95440285 163.08901216 163.40625 166.53125 C161.47321676 168.5144919 159.67228274 170.52196373 157.87109375 172.62109375 C153.34112603 177.83937335 148.45714013 182.68873253 143.5625 187.5625 C142.20801758 188.9227832 142.20801758 188.9227832 140.82617188 190.31054688 C136.24456121 194.88552233 131.6108321 199.32889906 126.69604492 203.54467773 C124.54027599 205.39447457 122.46155415 207.32278271 120.375 209.25 C114.72672047 214.34469623 108.77407273 219.00263183 102.75390625 223.64453125 C101.10071649 224.92216343 99.45552864 226.20934159 97.8125 227.5 C70.73185931 248.62289974 41.41002863 266.48708352 10 280.4375 C8.92524414 280.91654785 7.85048828 281.3955957 6.74316406 281.88916016 C5.75541992 282.31632324 4.76767578 282.74348633 3.75 283.18359375 C2.87859375 283.56056396 2.0071875 283.93753418 1.109375 284.32592773 C-1 285 -1 285 -3 284 C-2.09121094 283.30777344 -2.09121094 283.30777344 -1.1640625 282.6015625 C10.25874452 273.70934657 19.41404282 263.5667908 28 252 C28.40105957 251.45972168 28.80211914 250.91944336 29.21533203 250.36279297 C35.18572422 242.22772648 40.23976226 233.69928987 45.01269531 224.82373047 C45.86036293 223.25793495 46.73609449 221.70738962 47.6171875 220.16015625 C55.53494163 205.58720878 60.57578767 188.36799004 63 172 C63.20238281 170.80117188 63.40476562 169.60234375 63.61328125 168.3671875 C70.68410609 119.97773315 58.61185775 71.07894087 29.4699707 31.9206543 C21.48550848 21.48925351 12.29091494 12.25248155 3 3 C1.99978517 2.00021488 0.99971729 1.00028263 0 0 Z " fill="#131313" transform="translate(629,364)"/>
<path d="M0 0 C0.99 0.495 0.99 0.495 2 1 C1.2265625 1.70125 0.453125 2.4025 -0.34375 3.125 C-3.57860082 6.06601029 -6.79248403 9.02923173 -10 12 C-10.72316406 12.66644531 -11.44632813 13.33289063 -12.19140625 14.01953125 C-42.26404843 42.83653075 -61.22546312 87.05898887 -62.1960907 128.43814087 C-62.53246653 147.24380047 -62.71270626 165.65846285 -58 184 C-57.67854004 185.28245605 -57.67854004 185.28245605 -57.35058594 186.59082031 C-54.16443553 198.95976227 -49.59304416 210.53399032 -44 222 C-43.68836914 222.64775391 -43.37673828 223.29550781 -43.05566406 223.96289062 C-32.11969478 246.43659681 -15.75542823 264.71324297 2 282 C1.34 282.33 0.68 282.66 0 283 C-2.35644531 282.20239258 -2.35644531 282.20239258 -5.328125 280.89453125 C-6.42705078 280.41177734 -7.52597656 279.92902344 -8.65820312 279.43164062 C-9.84349609 278.89732422 -11.02878906 278.36300781 -12.25 277.8125 C-12.85513428 277.54123291 -13.46026855 277.26996582 -14.08374023 276.99047852 C-57.17540167 257.62337583 -95.98566231 229.44141653 -130.51171875 197.375 C-132.01004029 195.99072394 -133.518689 194.61869273 -135.03125 193.25 C-143.90101567 185.21444863 -152.54518991 177.01029059 -160.32421875 167.89453125 C-162.13977378 165.84198069 -164.04759536 163.92253994 -166 162 C-169.8809749 158.1714707 -173.46383026 154.14613841 -177 150 C-177.58394531 149.32066406 -178.16789063 148.64132812 -178.76953125 147.94140625 C-180.18255952 146.296734 -181.59170922 144.64873067 -183 143 C-181.70176525 139.18437605 -180.25033142 136.92909121 -177.3125 134.1875 C-174.68440779 131.71740933 -172.26520944 129.17176991 -169.92431641 126.43310547 C-165.76236992 121.65894834 -161.33027813 117.18631463 -156.84765625 112.71484375 C-155.55921059 111.424963 -155.55921059 111.424963 -154.24473572 110.10902405 C-152.43822985 108.30184139 -150.63047538 106.49590608 -148.8215332 104.69116211 C-146.0706319 101.94561607 -143.32510779 99.19477454 -140.58007812 96.44335938 C-138.81542468 94.6793668 -137.05046103 92.9156845 -135.28515625 91.15234375 C-134.47345474 90.33861801 -133.66175323 89.52489227 -132.82545471 88.68650818 C-128.04223591 83.92267834 -123.1325229 79.38414932 -118 75 C-116.55367187 73.7315625 -116.55367187 73.7315625 -115.078125 72.4375 C-105.4291 64.12121326 -95.25815743 56.54440461 -85 49 C-84.35385742 48.52143555 -83.70771484 48.04287109 -83.04199219 47.54980469 C-59.37394661 30.05034967 -33.53234565 15.65011285 -7 3 C-5.92250488 2.48590576 -5.92250488 2.48590576 -4.82324219 1.96142578 C-3.24417111 1.24111203 -1.62527366 0.60893587 0 0 Z " fill="#131313" transform="translate(393,364)"/>
<path d="M0 0 C13.63768868 10.35996093 21.68181278 23.25591677 25 40 C26.51323872 56.89506085 23.20037456 73.77647864 12.484375 87.30078125 C3.01448921 98.50105626 -8.13023426 104.5844965 -22.375 107.75 C-39.63400676 108.94027633 -54.76554812 106.56967624 -68.8984375 95.7890625 C-71.37350912 93.61129678 -73.70578578 91.36643949 -76 89 C-76.57234375 88.43667969 -77.1446875 87.87335938 -77.734375 87.29296875 C-88.16872375 76.24008901 -91.50971104 61.37417124 -91.34936523 46.64526367 C-90.85801934 30.86389971 -84.60971462 17.79993764 -73.66015625 6.4375 C-53.37962694 -12.14554008 -23.16036028 -14.38512228 0 0 Z " fill="#131313" transform="translate(545,455)"/>
<path d="M0 0 C2.8100346 1.79363911 4.50940468 3.01880935 6 6 C6.39447548 10.18144011 6.45035186 12.30946048 4.125 15.875 C1.21289342 18.78710658 0.3997223 18.96068305 -3.8125 19.375 C-7.23041924 19.31907041 -7.97465048 19.0177986 -10.9375 16.9375 C-13.43209094 13.38459775 -14.07615714 11.34095695 -14 7 C-10.50783138 0.4973412 -7.3180641 -1.05144599 0 0 Z " fill="#121212" transform="translate(516,187)"/>
<path d="M0 0 C3.99062431 2.48472834 5.68655935 3.96748964 7.0625 8.5 C6.97642701 13.32008768 5.52645066 15.47354934 2.1875 18.8125 C-0.8527265 20.46290867 -2.57949832 20.54728027 -6 20 C-8.9228334 18.16899068 -11.43323854 16.13352292 -13 13 C-13.40417552 10.03604618 -13.56382171 7.91095074 -11.953125 5.30859375 C-8.19027184 0.71569946 -5.93582549 -0.68490294 0 0 Z " fill="#161616" transform="translate(515,817)"/>
<path d="M0 0 C2 1.0625 2 1.0625 3 3 C3.50030235 6.93094707 3.5996142 9.1005787 1.375 12.4375 C-1.71685231 14.47161336 -3.36367425 14.60605429 -7 14 C-9.375 12.4375 -9.375 12.4375 -11 10 C-11.42213381 6.56262469 -11.60856522 4.17909511 -10 1.0625 C-6.75978228 -0.65886567 -3.58042244 -0.52960415 0 0 Z " fill="#121212" transform="translate(643,497)"/>
<path d="M0 0 C2 3 2 3 1.8125 6.0625 C1 9 1 9 -2 11 C-7.44444444 10.55555556 -7.44444444 10.55555556 -10 8 C-10.32954432 4.90228335 -10.45334601 2.82668977 -8.9375 0.0625 C-5.78433176 -1.66665678 -3.37491745 -0.8590699 0 0 Z " fill="#111111" transform="translate(569,397)"/>
<path d="M0 0 C2.47069902 0.89420999 3.67690015 1.98525251 5.51489258 3.85375977 C6.14331055 4.48668945 6.77172852 5.11961914 7.41918945 5.77172852 C8.40048828 6.78493164 8.40048828 6.78493164 9.40161133 7.81860352 C10.07514648 8.5030957 10.74868164 9.18758789 11.44262695 9.89282227 C15.29861393 13.83499749 19.07599457 17.81834494 22.58911133 22.07250977 C24.09590247 23.83932281 24.09590247 23.83932281 26.08911133 25.47094727 C30.99577827 29.6971975 30.99577827 29.6971975 31.30395508 33.19360352 C31.05344934 35.45168343 30.68052354 37.56439943 30.08911133 39.75610352 C29.75911133 39.75610352 29.42911133 39.75610352 29.08911133 39.75610352 C29.09378418 39.18835205 29.09845703 38.62060059 29.10327148 38.03564453 C28.85487446 32.23345357 27.57741867 29.37295904 23.37841797 25.39306641 C22.74669678 24.83224365 22.11497559 24.2714209 21.46411133 23.69360352 C20.1772449 22.48448358 18.89206932 21.27356141 17.60864258 20.06079102 C16.99456543 19.49070312 16.38048828 18.92061523 15.74780273 18.33325195 C13.7493616 16.43305624 11.9325137 14.42293413 10.15161133 12.31860352 C7.96282549 9.75396557 5.73672675 7.25183303 3.40161133 4.81860352 C2.86149414 4.25270508 2.32137695 3.68680664 1.76489258 3.10375977 C-0.11441712 1.59242679 -1.55531497 1.16152905 -3.91088867 0.75610352 C-1.91088867 -0.24389648 -1.91088867 -0.24389648 0 0 Z " fill="#0A090A" transform="translate(535.910888671875,573.243896484375)"/>
<path d="M0 0 C4.23429756 1.31061591 8.07407404 2.94356259 12 5 C11.67 5.66 11.34 6.32 11 7 C14.07661877 10.94832742 17.35278453 14.64332896 20.75 18.3125 C21.25660156 18.86228516 21.76320313 19.41207031 22.28515625 19.97851562 C23.5219813 21.32035412 24.76078625 22.66036721 26 24 C25.67 24.66 25.34 25.32 25 26 C24.37339478 25.32795532 24.37339478 25.32795532 23.73413086 24.64233398 C21.80320328 22.57285496 19.87036294 20.50517147 17.9375 18.4375 C16.95233398 17.38079102 16.95233398 17.38079102 15.94726562 16.30273438 C11.71583796 11.77948412 7.40457247 7.35446515 3 3 C1.9994252 2.00057513 0.99924939 1.00075005 0 0 Z " fill="#0B0B0A" transform="translate(629,364)"/>
<path d="M0 0 C0.66 1.32 1.32 2.64 2 4 C1.39526855 4.00410889 0.79053711 4.00821777 0.16748047 4.01245117 C-2.59764349 4.04553948 -5.36060815 4.11619624 -8.125 4.1875 C-9.07632812 4.19330078 -10.02765625 4.19910156 -11.0078125 4.20507812 C-17.43002168 4.40577216 -20.54455957 5.2970351 -25 10 C-23.52187211 6.55103493 -22.03393711 4.24736082 -19 2 C-15.73788925 1.50244115 -12.54003837 1.62364698 -9.25 1.75 C-8.36183594 1.76804687 -7.47367187 1.78609375 -6.55859375 1.8046875 C-4.37129152 1.85172626 -2.18620184 1.91742991 0 2 C0 1.34 0 0.68 0 0 Z " fill="#262626" transform="translate(444,528)"/>
<path d="M0 0 C5.06623768 4.23816537 9.80038069 8.67408963 14.4375 13.375 C15.07365234 14.01566406 15.70980469 14.65632812 16.36523438 15.31640625 C17.91250332 16.87530879 19.45736492 18.43651416 21 20 C20.34 20.33 19.68 20.66 19 21 C15.9375 19.8125 15.9375 19.8125 13 18 C12.64653566 16.67186151 12.31437122 15.3379311 12 14 C10.80597811 12.42890928 10.80597811 12.42890928 9.27734375 11.0546875 C8.73916016 10.53519531 8.20097656 10.01570312 7.64648438 9.48046875 C7.08251953 8.95066406 6.51855469 8.42085937 5.9375 7.875 C3.90735136 5.95315668 1.94444769 4.01190213 0 2 C0 1.34 0 0.68 0 0 Z " fill="#060606" transform="translate(374,626)"/>
<path d="M0 0 C11.55 0.33 23.1 0.66 35 1 C35 1.33 35 1.66 35 2 C34.11739502 2.02505615 33.23479004 2.0501123 32.32543945 2.07592773 C29.03593385 2.1713353 25.74658818 2.27055193 22.45727539 2.37231445 C21.03642225 2.41549804 19.61552274 2.45718408 18.19458008 2.49731445 C16.1465053 2.55542095 14.09866035 2.61899638 12.05078125 2.68359375 C10.82012939 2.72025146 9.58947754 2.75690918 8.3215332 2.79467773 C5.44173016 2.97269423 2.80412912 3.34609105 0 4 C0 2.68 0 1.36 0 0 Z " fill="#191918" transform="translate(582,494)"/>
<path d="M0 0 C0.33 0 0.66 0 1 0 C1.33 5.61 1.66 11.22 2 17 C6.95 17.33 11.9 17.66 17 18 C17 18.33 17 18.66 17 19 C11.39 19 5.78 19 0 19 C0 12.73 0 6.46 0 0 Z " fill="#080808" transform="translate(520,290)"/>
<path d="M0 0 C0.99 0 1.98 0 3 0 C3 1.32 3 2.64 3 4 C0.71220962 5.03040167 -1.57951136 6.04952018 -3.875 7.0625 C-4.85146484 7.50432617 -4.85146484 7.50432617 -5.84765625 7.95507812 C-7.54010541 8.69661513 -9.26868575 9.35439001 -11 10 C-11.66 9.67 -12.32 9.34 -13 9 C-9.07511157 6.15253193 -5.18204674 3.46002749 -1 1 C-0.67 0.67 -0.34 0.34 0 0 Z " fill="#1B1B1A" transform="translate(639,639)"/>
<path d="M0 0 C0 0.33 0 0.66 0 1 C4.95 1.33 9.9 1.66 15 2 C15 2.33 15 2.66 15 3 C2.625 3.495 2.625 3.495 -10 4 C-10 3.01 -10 2.02 -10 1 C-6.59437148 0.22157062 -3.49234244 -0.09978121 0 0 Z " fill="#1C1C1C" transform="translate(508,446)"/>
<path d="M0 0 C2.58787727 2.58787727 2.62709152 4.42007861 3 8 C2.67 8.66 2.34 9.32 2 10 C-4.27 10 -10.54 10 -17 10 C-17 9.67 -17 9.34 -17 9 C-11.39 9 -5.78 9 0 9 C-0.33 6.36 -0.66 3.72 -1 1 C-0.67 0.67 -0.34 0.34 0 0 Z " fill="#1A1A19" transform="translate(442,520)"/>
<path d="M0 0 C0.33 0 0.66 0 1 0 C1.02712066 1.43739513 1.04645067 2.87493863 1.0625 4.3125 C1.07410156 5.11300781 1.08570313 5.91351562 1.09765625 6.73828125 C1 9 1 9 0 12 C-0.03874921 13.66621616 -0.0450286 15.33394172 0 17 C-0.99 17 -1.98 17 -3 17 C-2.88597936 14.72858891 -2.75841495 12.45785448 -2.625 10.1875 C-2.55539062 8.92292969 -2.48578125 7.65835938 -2.4140625 6.35546875 C-2 3 -2 3 0 0 Z " fill="#202020" transform="translate(696,516)"/>
<path d="M0 0 C0.99 0.33 1.98 0.66 3 1 C2.67 11.56 2.34 22.12 2 33 C1.67 33 1.34 33 1 33 C0.67 22.11 0.34 11.22 0 0 Z " fill="#1B1B1B" transform="translate(505,384)"/>
<path d="M0 0 C0 2.94205921 -0.44472429 4.53292964 -1.4375 7.25 C-2.80677241 11.19634642 -3.55881943 14.85290267 -4 19 C-4.33 19 -4.66 19 -5 19 C-5.19466332 17.20909747 -5.38051213 15.41723495 -5.5625 13.625 C-5.66691406 12.62726563 -5.77132813 11.62953125 -5.87890625 10.6015625 C-6 8 -6 8 -5 6 C-4.34 6 -3.68 6 -3 6 C-2.690625 5.195625 -2.38125 4.39125 -2.0625 3.5625 C-1 1 -1 1 0 0 Z " fill="#0C0C0C" transform="translate(423,228)"/>
<path d="M0 0 C2.25998595 3.59462331 2.20868087 6.56595675 2.125 10.75 C2.10695313 11.92046875 2.08890625 13.0909375 2.0703125 14.296875 C2.03550781 15.63492187 2.03550781 15.63492187 2 17 C1.67 17 1.34 17 1 17 C1 15.35 1 13.7 1 12 C0.34 12 -0.32 12 -1 12 C-1.08159574 7.83861737 -0.98248524 4.0527516 0 0 Z " fill="#1B1B1B" transform="translate(455,490)"/>
<path d="M0 0 C0.3306901 6.17288188 -0.33838184 10.38102832 -3 16 C-3.99 16.33 -4.98 16.66 -6 17 C-5.690625 16.21625 -5.38125 15.4325 -5.0625 14.625 C-3.91707443 10.71707746 -3.58577749 7.12212844 -3.34375 3.07421875 C-3.2303125 2.38972656 -3.116875 1.70523438 -3 1 C-1 0 -1 0 0 0 Z " fill="#212121" transform="translate(540,823)"/>
<path d="M0 0 C0.66 0.33 1.32 0.66 2 1 C2 1.66 2 2.32 2 3 C0.23585377 3.72482748 -1.53662904 4.42939296 -3.3125 5.125 C-4.79169922 5.71667969 -4.79169922 5.71667969 -6.30078125 6.3203125 C-7.19152344 6.54460937 -8.08226562 6.76890625 -9 7 C-9.99 6.34 -10.98 5.68 -12 5 C-11.30132812 4.72285156 -10.60265625 4.44570313 -9.8828125 4.16015625 C-8.97273438 3.79792969 -8.06265625 3.43570312 -7.125 3.0625 C-6.22007812 2.70285156 -5.31515625 2.34320313 -4.3828125 1.97265625 C-2.03862333 1.05098738 -2.03862333 1.05098738 0 0 Z " fill="#181818" transform="translate(390,330)"/>
<path d="M0 0 C3.96 0 7.92 0 12 0 C12.33 0.99 12.66 1.98 13 3 C11.39592672 3.02708567 9.7917215 3.04643483 8.1875 3.0625 C6.84751953 3.07990234 6.84751953 3.07990234 5.48046875 3.09765625 C3 3 3 3 0 2 C0 1.34 0 0.68 0 0 Z " fill="#1E1E1E" transform="translate(516,343)"/>
<path d="M0 0 C0.33 0 0.66 0 1 0 C1 3.63 1 7.26 1 11 C0.01 10.67 -0.98 10.34 -2 10 C-2 7.69 -2 5.38 -2 3 C-1.34 3 -0.68 3 0 3 C0 2.01 0 1.02 0 0 Z " fill="#232323" transform="translate(409,782)"/>
<path d="M0 0 C-2.3797234 2.3797234 -3.74424795 2.58749232 -7 3.25 C-7.886875 3.44078125 -8.77375 3.6315625 -9.6875 3.828125 C-10.450625 3.88484375 -11.21375 3.9415625 -12 4 C-12.66 3.34 -13.32 2.68 -14 2 C-12.04396149 1.47061343 -10.08507711 0.95173199 -8.125 0.4375 C-7.03445313 0.14746094 -5.94390625 -0.14257812 -4.8203125 -0.44140625 C-2 -1 -2 -1 0 0 Z " fill="#1C1B1C" transform="translate(597,692)"/>
<path d="M0 0 C0.66 0.33 1.32 0.66 2 1 C1.01 2.485 1.01 2.485 0 4 C1.98 5.98 3.96 7.96 6 10 C5.67 10.66 5.34 11.32 5 12 C2.36 9.36 -0.28 6.72 -3 4 C-2.67 3.01 -2.34 2.02 -2 1 C-1.34 0.67 -0.68 0.34 0 0 Z " fill="#060706" transform="translate(552,564)"/>
<path d="M0 0 C2 3 2 3 1.625 6 C1.41875 6.99 1.2125 7.98 1 9 C1 9.99 1 10.98 1 12 C0.01 11.34 -0.98 10.68 -2 10 C-1.54177532 6.53058454 -1.10868317 3.32604951 0 0 Z " fill="#232324" transform="translate(579,526)"/>
<path d="M0 0 C5.95703125 -0.29296875 5.95703125 -0.29296875 8 0 C8.99 0.99 9.98 1.98 11 3 C7.04 3 3.08 3 -1 3 C-0.67 2.01 -0.34 1.02 0 0 Z " fill="#232323" transform="translate(489,701)"/>
<path d="M0 0 C-0.33 0.66 -0.66 1.32 -1 2 C-10.41002278 2.18451025 -10.41002278 2.18451025 -15 1 C-15 0.67 -15 0.34 -15 0 C-13.25093341 -0.19601608 -11.50068154 -0.38147403 -9.75 -0.5625 C-8.77546875 -0.66691406 -7.8009375 -0.77132812 -6.796875 -0.87890625 C-4.2368648 -0.98974468 -2.41851841 -0.77738092 0 0 Z " fill="#191819" transform="translate(547,701)"/>
<path d="M0 0 C0.33 0 0.66 0 1 0 C1 2.97 1 5.94 1 9 C0.01 9 -0.98 9 -2 9 C-2 6.69 -2 4.38 -2 2 C-1.34 2 -0.68 2 0 2 C0 1.34 0 0.68 0 0 Z " fill="#222222" transform="translate(500,625)"/>
<path d="M0 0 C2.31 0.66 4.62 1.32 7 2 C7.33 3.32 7.66 4.64 8 6 C5.36 4.68 2.72 3.36 0 2 C0 1.34 0 0.68 0 0 Z " fill="#1D1D1D" transform="translate(435,647)"/>
<path d="M0 0 C2.475 0.495 2.475 0.495 5 1 C5 1.66 5 2.32 5 3 C5.99 3.33 6.98 3.66 8 4 C7.67 4.66 7.34 5.32 7 6 C3.535 4.02 3.535 4.02 0 2 C0 1.34 0 0.68 0 0 Z " fill="#1B1B1B" transform="translate(670,348)"/>
<path d="M0 0 C-0.66 0.66 -1.32 1.32 -2 2 C-2.66 1.67 -3.32 1.34 -4 1 C-4 1.66 -4 2.32 -4 3 C-5.65 3 -7.3 3 -9 3 C-9 2.01 -9 1.02 -9 0 C-2.25 -1.125 -2.25 -1.125 0 0 Z " fill="#1A1A1A" transform="translate(592,248)"/>
<path d="M0 0 C0.99 0.33 1.98 0.66 3 1 C1.35 2.65 -0.3 4.3 -2 6 C-2.66 5.34 -3.32 4.68 -4 4 C-2.68 2.68 -1.36 1.36 0 0 Z " fill="#212121" transform="translate(366,713)"/>
<path d="M0 0 C1.32 0.66 2.64 1.32 4 2 C-0.455 3.485 -0.455 3.485 -5 5 C-5 4.01 -5 3.02 -5 2 C-3.35 2 -1.7 2 0 2 C0 1.34 0 0.68 0 0 Z " fill="#1B1B1B" transform="translate(401,326)"/>
<path d="M0 0 C0.33 0 0.66 0 1 0 C1.33 2.97 1.66 5.94 2 9 C1.01 9 0.02 9 -1 9 C-0.67 6.03 -0.34 3.06 0 0 Z " fill="#19191A" transform="translate(523,613)"/>
<path d="M0 0 C0.33 0 0.66 0 1 0 C1.33 2.97 1.66 5.94 2 9 C1.01 9 0.02 9 -1 9 C-0.67 6.03 -0.34 3.06 0 0 Z " fill="#252525" transform="translate(331,532)"/>
<path d="M0 0 C0.66 0.33 1.32 0.66 2 1 C2 2.65 2 4.3 2 6 C1.01 6.33 0.02 6.66 -1 7 C-0.67 4.69 -0.34 2.38 0 0 Z " fill="#1D1D1D" transform="translate(351,478)"/>
<path d="M0 0 C5.75 1.75 5.75 1.75 8 4 C3.82412255 5.39195915 1.86525224 3.82323219 -2 2 C-1.34 1.34 -0.68 0.68 0 0 Z " fill="#202120" transform="translate(581,358)"/>
<path d="M0 0 C0.99 0 1.98 0 3 0 C3 2.31 3 4.62 3 7 C2.01 7 1.02 7 0 7 C0 4.69 0 2.38 0 0 Z " fill="#1E1E1E" transform="translate(519,193)"/>
</svg>
